<svg width="93" height="91" viewBox="0 0 93 91" fill="none" xmlns="http://www.w3.org/2000/svg">
<g clip-path="url(#clip0_22_151)">
<path d="M46.1283 22.7043C47.0528 22.7711 47.9198 23.1927 48.5386 23.8766C49.1574 24.5604 49.4773 25.4505 49.428 26.3509C49.3788 27.2512 48.9643 28.0882 48.2757 28.6777C47.5872 29.2672 46.6811 29.5609 45.7566 29.4942C44.8322 29.4274 43.9652 29.0058 43.3464 28.3219C42.7276 27.6381 42.4077 26.748 42.4569 25.8477C42.5062 24.9473 42.9207 24.1103 43.6093 23.5208C44.2978 22.9313 45.2039 22.6376 46.1283 22.7043ZM46.0354 24.4018C45.5732 24.3684 45.1201 24.5153 44.7759 24.81C44.4316 25.1048 44.2244 25.5233 44.1997 25.9735C44.1751 26.4236 44.3351 26.8687 44.6445 27.2106C44.9539 27.5525 45.3874 27.7633 45.8496 27.7967C46.3118 27.8301 46.7649 27.6832 47.1091 27.3885C47.4534 27.0937 47.6606 26.6752 47.6853 26.2251C47.7099 25.7749 47.5499 25.3299 47.2405 24.9879C46.9311 24.646 46.4976 24.4352 46.0354 24.4018ZM43.7351 34.4607C43.5173 34.445 43.3426 34.279 43.3189 34.0728L43.1196 31.8004C42.5823 31.5486 42.1275 31.2261 41.693 30.8539L39.4763 31.5545C39.2809 31.6085 39.0493 31.5237 38.955 31.3294L37.373 28.267C37.3244 28.1757 37.3113 28.071 37.336 27.9724C37.3607 27.8738 37.4216 27.7881 37.5073 27.7313L39.423 26.4552L39.4071 25.6275L39.5145 24.7832L37.7516 23.267C37.6728 23.1984 37.6218 23.1046 37.608 23.0033C37.5942 22.9019 37.6187 22.7999 37.6768 22.7163L39.5804 19.9055C39.6951 19.7263 39.9346 19.6669 40.1221 19.7571L42.2454 20.7625C42.7167 20.4642 43.203 20.2096 43.7636 20.037L44.2091 17.8112C44.2551 17.61 44.4465 17.4704 44.6643 17.4862L48.1499 17.7378C48.3677 17.7535 48.5424 17.9195 48.5661 18.1257L48.7654 20.3981C49.3027 20.6499 49.7575 20.9724 50.1925 21.3361L52.4087 20.644C52.6046 20.5815 52.8357 20.6749 52.93 20.8691L54.512 23.9315C54.6151 24.1264 54.5503 24.3518 54.3777 24.4672L52.4634 25.7179L52.4779 26.571L52.3705 27.4153L54.1333 28.9315C54.2919 29.0707 54.3317 29.3037 54.2082 29.4822L52.3046 32.293C52.1899 32.4722 51.9504 32.5316 51.7629 32.4414L49.6396 31.436C49.1683 31.7343 48.682 31.9889 48.1214 32.1615L47.6759 34.3873C47.6299 34.5885 47.4385 34.7281 47.2207 34.7123L43.7351 34.4607ZM45.6607 19.2622L45.217 21.4542C44.1597 21.5909 43.2063 22.0674 42.494 22.7743L40.4422 21.74L39.7283 22.7962L41.4949 24.2445C41.0922 25.2095 41.0333 26.2845 41.3276 27.2999L39.4078 28.4906L40.001 29.6411L42.1668 28.9112C42.7968 29.7066 43.6821 30.3158 44.7079 30.5943L44.9085 32.8413L46.2331 32.9369L46.6767 30.745C47.7253 30.6076 48.67 30.1305 49.3819 29.4321L51.451 30.4676L52.1649 29.4114L50.3896 27.9625C50.7925 26.9947 50.8515 25.9168 50.5573 24.8986L52.468 23.7158L51.8749 22.5653L49.7265 23.2964C49.084 22.4749 48.1842 21.8794 47.1684 21.6035L46.9677 19.3566L45.6607 19.2622Z" fill="#352D2D"/>
<path d="M21.4999 34.5C22.8629 34.5 24.17 35.0268 25.1338 35.9645C26.0976 36.9021 26.639 38.1739 26.639 39.5C26.639 40.8261 26.0976 42.0979 25.1338 43.0355C24.17 43.9732 22.8629 44.5 21.4999 44.5C20.1369 44.5 18.8297 43.9732 17.8659 43.0355C16.9022 42.0979 16.3607 40.8261 16.3607 39.5C16.3607 38.1739 16.9022 36.9021 17.8659 35.9645C18.8297 35.0268 20.1369 34.5 21.4999 34.5ZM21.4999 37C20.8184 37 20.1648 37.2634 19.6829 37.7322C19.201 38.2011 18.9303 38.837 18.9303 39.5C18.9303 40.163 19.201 40.7989 19.6829 41.2678C20.1648 41.7366 20.8184 42 21.4999 42C22.1814 42 22.835 41.7366 23.3168 41.2678C23.7987 40.7989 24.0695 40.163 24.0695 39.5C24.0695 38.837 23.7987 38.2011 23.3168 37.7322C22.835 37.2634 22.1814 37 21.4999 37ZM18.9303 52C18.6091 52 18.3393 51.775 18.2879 51.475L17.8125 48.1625C17.0031 47.85 16.3093 47.425 15.6412 46.925L12.4421 48.1875C12.1595 48.2875 11.8126 48.1875 11.6584 47.9125L9.08883 43.5875C9.0102 43.4587 8.98247 43.3065 9.01085 43.1592C9.03923 43.012 9.12176 42.8798 9.24301 42.7875L11.9539 40.7125L11.864 39.5L11.9539 38.25L9.24301 36.2125C9.12176 36.1202 9.03923 35.988 9.01085 35.8408C8.98247 35.6935 9.0102 35.5413 9.08883 35.4125L11.6584 31.0875C11.8126 30.8125 12.1595 30.7 12.4421 30.8125L15.6412 32.0625C16.3093 31.575 17.0031 31.15 17.8125 30.8375L18.2879 27.525C18.3393 27.225 18.6091 27 18.9303 27H24.0695C24.3906 27 24.6605 27.225 24.7118 27.525L25.1872 30.8375C25.9966 31.15 26.6904 31.575 27.3585 32.0625L30.5576 30.8125C30.8403 30.7 31.1872 30.8125 31.3413 31.0875L33.9109 35.4125C34.0779 35.6875 34.0009 36.025 33.7568 36.2125L31.0458 38.25L31.1358 39.5L31.0458 40.75L33.7568 42.7875C34.0009 42.975 34.0779 43.3125 33.9109 43.5875L31.3413 47.9125C31.1872 48.1875 30.8403 48.3 30.5576 48.1875L27.3585 46.9375C26.6904 47.425 25.9966 47.85 25.1872 48.1625L24.7118 51.475C24.6605 51.775 24.3906 52 24.0695 52H18.9303ZM20.5363 29.5L20.0609 32.7625C18.5192 33.075 17.1573 33.875 16.168 34.9875L13.0717 33.6875L12.1081 35.3125L14.819 37.25C14.3051 38.7083 14.3051 40.2917 14.819 41.75L12.0952 43.7L13.0588 45.325L16.1809 44.025C17.1701 45.125 18.5192 45.925 20.0481 46.225L20.5234 49.5H22.4763L22.9517 46.2375C24.4806 45.925 25.8296 45.125 26.8189 44.025L29.9409 45.325L30.9045 43.7L28.1808 41.7625C28.6947 40.3 28.6947 38.7125 28.1808 37.25L30.8917 35.3125L29.9281 33.6875L26.8317 34.9875C25.8222 33.8504 24.4527 33.0721 22.9388 32.775L22.4635 29.5H20.5363Z" fill="#352D2D"/>
<path d="M8.99991 16.4C9.98126 16.4 10.9224 16.7793 11.6163 17.4544C12.3103 18.1295 12.7001 19.0452 12.7001 20C12.7001 20.9548 12.3103 21.8705 11.6163 22.5456C10.9224 23.2207 9.98126 23.6 8.99991 23.6C8.01856 23.6 7.0774 23.2207 6.38348 22.5456C5.68956 21.8705 5.29972 20.9548 5.29972 20C5.29972 19.0452 5.68956 18.1295 6.38348 17.4544C7.0774 16.7793 8.01856 16.4 8.99991 16.4ZM8.99991 18.2C8.50924 18.2 8.03866 18.3896 7.6917 18.7272C7.34474 19.0648 7.14982 19.5226 7.14982 20C7.14982 20.4774 7.34474 20.9352 7.6917 21.2728C8.03866 21.6104 8.50924 21.8 8.99991 21.8C9.49059 21.8 9.96116 21.6104 10.3081 21.2728C10.6551 20.9352 10.85 20.4774 10.85 20C10.85 19.5226 10.6551 19.0648 10.3081 18.7272C9.96116 18.3896 9.49059 18.2 8.99991 18.2ZM7.14982 29C6.91856 29 6.7243 28.838 6.68729 28.622L6.34503 26.237C5.76225 26.012 5.26272 25.706 4.7817 25.346L2.47833 26.255C2.27482 26.327 2.02506 26.255 1.91405 26.057L0.0639583 22.943C0.00734132 22.8503 -0.0126182 22.7406 0.00781219 22.6346C0.0282426 22.5286 0.087664 22.4335 0.174964 22.367L2.12681 20.873L2.06206 20L2.12681 19.1L0.174964 17.633C0.087664 17.5665 0.0282426 17.4714 0.00781219 17.3654C-0.0126182 17.2594 0.00734132 17.1497 0.0639583 17.057L1.91405 13.943C2.02506 13.745 2.27482 13.664 2.47833 13.745L4.7817 14.645C5.26272 14.294 5.76225 13.988 6.34503 13.763L6.68729 11.378C6.7243 11.162 6.91856 11 7.14982 11H10.85C11.0813 11 11.2755 11.162 11.3125 11.378L11.6548 13.763C12.2376 13.988 12.7371 14.294 13.2181 14.645L15.5215 13.745C15.725 13.664 15.9748 13.745 16.0858 13.943L17.9359 17.057C18.0561 17.255 18.0006 17.498 17.8249 17.633L15.873 19.1L15.9378 20L15.873 20.9L17.8249 22.367C18.0006 22.502 18.0561 22.745 17.9359 22.943L16.0858 26.057C15.9748 26.255 15.725 26.336 15.5215 26.255L13.2181 25.355C12.7371 25.706 12.2376 26.012 11.6548 26.237L11.3125 28.622C11.2755 28.838 11.0813 29 10.85 29H7.14982ZM8.30613 12.8L7.96386 15.149C6.8538 15.374 5.87325 15.95 5.16097 16.751L2.9316 15.815L2.23782 16.985L4.18967 18.38C3.81965 19.43 3.81965 20.57 4.18967 21.62L2.22857 23.024L2.92235 24.194L5.17022 23.258C5.8825 24.05 6.8538 24.626 7.95461 24.842L8.29687 27.2H9.70295L10.0452 24.851C11.146 24.626 12.1173 24.05 12.8296 23.258L15.0775 24.194L15.7713 23.024L13.8102 21.629C14.1802 20.576 14.1802 19.433 13.8102 18.38L15.762 16.985L15.0682 15.815L12.8389 16.751C12.112 15.9323 11.126 15.3719 10.036 15.158L9.6937 12.8H8.30613Z" fill="#9A1010"/>
<path d="M32.2375 32.8935L39 29" stroke="black" stroke-width="2"/>
<path d="M85.8002 34.5344C86.4398 35.5491 86.6967 36.8185 86.5145 38.0634C86.3322 39.3084 85.7256 40.4268 84.8282 41.1728C83.9308 41.9187 82.816 42.231 81.7292 42.041C80.6423 41.851 79.6724 41.1743 79.0328 40.1596C78.3932 39.145 78.1363 37.8755 78.3186 36.6306C78.5008 35.3857 79.1074 34.2672 80.0048 33.5213C80.9022 32.7753 82.017 32.463 83.1038 32.653C84.1907 32.843 85.1606 33.5198 85.8002 34.5344ZM84.1084 35.9407C83.7885 35.4334 83.3036 35.095 82.7602 35C82.2167 34.905 81.6594 35.0612 81.2107 35.4341C80.762 35.8071 80.4587 36.3663 80.3675 36.9888C80.2764 37.6113 80.4048 38.246 80.7247 38.7533C81.0445 39.2606 81.5294 39.599 82.0728 39.694C82.6163 39.789 83.1736 39.6329 83.6223 39.2599C84.0711 38.8869 84.3743 38.3277 84.4655 37.7052C84.5566 37.0828 84.4282 36.4481 84.1084 35.9407ZM72.7514 42.4656C72.6007 42.2265 72.6264 41.8991 72.8053 41.6921L74.8239 39.4748C74.6555 38.6965 74.6176 37.941 74.6424 37.1624L72.2867 35.491C72.0864 35.3368 71.9913 35.0224 72.1051 34.7529L73.8261 30.4071C73.8764 30.2761 73.9664 30.1699 74.0794 30.1082C74.1923 30.0465 74.3205 30.0336 74.4399 30.0719L77.1163 30.9227L77.8946 30.1737L78.7827 29.5375L78.8894 26.3733C78.895 26.2311 78.9457 26.0954 79.032 25.9914C79.1183 25.8875 79.2344 25.8225 79.3585 25.8086L83.4912 25.2885C83.7496 25.2486 83.9886 25.4436 84.0451 25.7173L84.7004 28.802C85.3439 29.0251 85.957 29.3025 86.5484 29.7292L89.0131 28.2198C89.2403 28.0893 89.5192 28.1636 89.6699 28.4027L92.0816 32.2284C92.2323 32.4675 92.2067 32.795 92.0278 33.002L90.0091 35.2192C90.1775 35.9975 90.2155 36.7531 90.1991 37.5247L92.5463 39.203C92.755 39.3502 92.8417 39.6717 92.7279 39.9412L91.0069 44.2869C90.8992 44.5659 90.6346 44.6984 90.3932 44.6222L87.7421 43.7502L86.9384 44.5203L86.0503 45.1565L85.9436 48.3207C85.9313 48.6079 85.739 48.8551 85.4746 48.8855L81.3418 49.4055C81.0834 49.4454 80.8444 49.2505 80.7879 48.9768L80.1326 45.8921C79.4892 45.669 78.876 45.3916 78.2846 44.9648L75.8199 46.4742C75.5927 46.6047 75.3138 46.5305 75.1631 46.2913L72.7514 42.4656ZM88.7317 31.0045L86.3008 32.4859C85.3658 31.5139 84.1853 30.9501 82.9682 30.8395L82.3949 27.8032L80.843 27.9999L80.804 31.1079C79.5759 31.5456 78.5044 32.4363 77.7587 33.6392L75.1608 32.7085L74.5133 34.3399L76.8582 35.9328C76.578 37.288 76.6697 38.7423 77.1841 40.0492L75.1909 42.2453L76.1073 43.6991L78.5383 42.2177C79.4672 43.1801 80.6417 43.7344 81.8504 43.8521L82.4357 46.9075L83.9876 46.7107L84.0206 43.5932C85.2515 43.1531 86.3258 42.2601 87.0744 41.0548L89.6577 41.983L90.3052 40.3516L87.9724 38.7779C88.2682 37.3867 88.1522 35.9294 87.6428 34.6353L89.6361 32.4392L88.7317 31.0045Z" fill="#352D2D"/>
<path d="M51.9998 50.6C53.7445 50.6 55.4176 51.2743 56.6513 52.4745C57.8849 53.6747 58.578 55.3026 58.578 57C58.578 58.6974 57.8849 60.3253 56.6513 61.5255C55.4176 62.7257 53.7445 63.4 51.9998 63.4C50.2552 63.4 48.5821 62.7257 47.3484 61.5255C46.1148 60.3253 45.4217 58.6974 45.4217 57C45.4217 55.3026 46.1148 53.6747 47.3484 52.4745C48.5821 51.2743 50.2552 50.6 51.9998 50.6ZM51.9998 53.8C51.1275 53.8 50.2909 54.1371 49.6741 54.7373C49.0573 55.3374 48.7108 56.1513 48.7108 57C48.7108 57.8487 49.0573 58.6626 49.6741 59.2627C50.2909 59.8629 51.1275 60.2 51.9998 60.2C52.8722 60.2 53.7087 59.8629 54.3256 59.2627C54.9424 58.6626 55.2889 57.8487 55.2889 57C55.2889 56.1513 54.9424 55.3374 54.3256 54.7373C53.7087 54.1371 52.8722 53.8 51.9998 53.8ZM48.7108 73C48.2997 73 47.9543 72.712 47.8885 72.328L47.28 68.088C46.244 67.688 45.356 67.144 44.5008 66.504L40.4059 68.12C40.0441 68.248 39.6001 68.12 39.4028 67.768L36.1137 62.232C36.0131 62.0671 35.9776 61.8723 36.0139 61.6838C36.0502 61.4953 36.1558 61.3262 36.311 61.208L39.781 58.552L39.6659 57L39.781 55.4L36.311 52.792C36.1558 52.6738 36.0502 52.5047 36.0139 52.3162C35.9776 52.1277 36.0131 51.9329 36.1137 51.768L39.4028 46.232C39.6001 45.88 40.0441 45.736 40.4059 45.88L44.5008 47.48C45.356 46.856 46.244 46.312 47.28 45.912L47.8885 41.672C47.9543 41.288 48.2997 41 48.7108 41H55.2889C55.7 41 56.0454 41.288 56.1112 41.672L56.7196 45.912C57.7557 46.312 58.6437 46.856 59.4989 47.48L63.5938 45.88C63.9556 45.736 64.3996 45.88 64.5969 46.232L67.886 51.768C68.0998 52.12 68.0011 52.552 67.6886 52.792L64.2187 55.4L64.3338 57L64.2187 58.6L67.6886 61.208C68.0011 61.448 68.0998 61.88 67.886 62.232L64.5969 67.768C64.3996 68.12 63.9556 68.264 63.5938 68.12L59.4989 66.52C58.6437 67.144 57.7557 67.688 56.7196 68.088L56.1112 72.328C56.0454 72.712 55.7 73 55.2889 73H48.7108ZM50.7664 44.2L50.158 48.376C48.1845 48.776 46.4413 49.8 45.1751 51.224L41.2117 49.56L39.9783 51.64L43.4483 54.12C42.7905 55.9867 42.7905 58.0133 43.4483 59.88L39.9619 62.376L41.1953 64.456L45.1915 62.792C46.4578 64.2 48.1845 65.224 50.1415 65.608L50.75 69.8H53.2497L53.8582 65.624C55.8151 65.224 57.5419 64.2 58.8082 62.792L62.8044 64.456L64.0378 62.376L60.5514 59.896C61.2092 58.024 61.2092 55.992 60.5514 54.12L64.0213 51.64L62.7879 49.56L58.8246 51.224C57.5324 49.7685 55.7795 48.7723 53.8417 48.392L53.2332 44.2H50.7664Z" fill="#352D2D"/>
<path d="M79.536 70.0576C80.0112 70.9162 80.1606 71.9633 79.9512 72.9684C79.7419 73.9735 79.191 74.8544 78.4197 75.4172C77.6485 75.98 76.72 76.1787 75.8387 75.9695C74.9573 75.7604 74.1952 75.1605 73.72 74.3019C73.2448 73.4432 73.0955 72.3962 73.3048 71.3911C73.5141 70.386 74.065 69.5051 74.8363 68.9423C75.6076 68.3795 76.536 68.1808 77.4174 68.3899C78.2987 68.5991 79.0608 69.199 79.536 70.0576ZM78.082 71.1187C77.8444 70.6894 77.4634 70.3894 77.0227 70.2848C76.582 70.1803 76.1178 70.2796 75.7322 70.561C75.3465 70.8424 75.0711 71.2829 74.9664 71.7854C74.8617 72.288 74.9364 72.8115 75.174 73.2408C75.4116 73.6701 75.7927 73.9701 76.2333 74.0746C76.674 74.1792 77.1382 74.0799 77.5239 73.7985C77.9095 73.5171 78.1849 73.0766 78.2896 72.5741C78.3943 72.0715 78.3196 71.548 78.082 71.1187ZM68.4621 75.8663C68.3501 75.664 68.3869 75.3985 68.5435 75.2388L70.3043 73.5335C70.2039 72.8909 70.2092 72.2735 70.2671 71.6404L68.4174 70.1609C68.2607 70.0253 68.1979 69.7643 68.3041 69.5505L69.9237 66.0961C69.9712 65.9919 70.0501 65.9098 70.1456 65.8652C70.2412 65.8206 70.3468 65.8165 70.4428 65.8537L72.5947 66.6808L73.2685 66.1095L74.0269 65.6356L74.2668 63.0631C74.2782 62.9475 74.3263 62.8395 74.402 62.7591C74.4778 62.6787 74.576 62.6316 74.6783 62.6264L78.0896 62.4095C78.3033 62.3899 78.4897 62.5607 78.5228 62.7865L78.9111 65.3324C79.4276 65.5463 79.9167 65.803 80.3806 66.1803L82.4729 65.0738C82.6653 64.9789 82.8902 65.0534 83.0022 65.2557L84.7939 68.4932C84.9059 68.6955 84.8691 68.961 84.7125 69.1207L82.9517 70.826C83.0522 71.4686 83.0469 72.086 82.9962 72.7138L84.8386 74.1986C85.0026 74.3289 85.0581 74.5952 84.9519 74.809L83.3323 78.2634C83.2306 78.4853 83.0074 78.58 82.8133 78.5058L80.6831 77.6628L79.9875 78.25L79.2291 78.7239L78.9892 81.2964C78.9653 81.5297 78.7959 81.7215 78.5777 81.733L75.1664 81.95C74.9527 81.9696 74.7663 81.7988 74.7332 81.573L74.3449 79.0271C73.8284 78.8131 73.3394 78.5565 72.8754 78.1792L70.7831 79.2857C70.5907 79.3806 70.3658 79.3061 70.2538 79.1038L68.4621 75.8663ZM82.1081 67.3285L80.0449 68.4137C79.3256 67.5751 78.3855 67.0567 77.3936 66.9057L77.0702 64.4033L75.7891 64.486L75.6074 67.0161C74.5801 67.3113 73.6592 67.9833 72.9902 68.926L70.9064 68.0378L70.2973 69.3345L72.1418 70.7495C71.847 71.8396 71.852 73.029 72.2106 74.1194L70.4716 75.8089L71.1524 77.0391L73.2156 75.9539C73.9304 76.7844 74.866 77.2947 75.8507 77.451L76.1831 79.9695L77.4641 79.8869L77.6414 77.3487C78.6711 77.0517 79.5944 76.378 80.2659 75.4335L82.3378 76.3189L82.947 75.0222L81.1114 73.6234C81.4208 72.5048 81.396 71.3118 81.041 70.232L82.78 68.5425L82.1081 67.3285Z" fill="#18106F"/>
<path d="M20.6267 29.0037L18.6025 27.2521L16 25" stroke="black" stroke-width="2"/>
<path d="M30.3869 44.9867L38.458 50.0841" stroke="black" stroke-width="2"/>
<path d="M65.5497 50.4936L74.4754 44.4459" stroke="black" stroke-width="2"/>
<line y1="-1" x2="4.89623" y2="-1" transform="matrix(0.821697 0.569925 -0.460678 0.887567 65 66)" stroke="black" stroke-width="2"/>
</g>
<defs>
<clipPath id="clip0_22_151">
<rect width="93" height="91" fill="white"/>
</clipPath>
</defs>
</svg>
